Coordinates
version=1
nRows=15
nColumns=34
inDegrees=no

Units are S.I. units (second, meters, Newtons, ...)
If the header above contains a line with 'inDegrees', this indicates whether rotational values are in degrees (yes) or radians (no).

endheader
time	pelvis_tilt	pelvis_list	pelvis_rotation	pelvis_tx	pelvis_ty	pelvis_tz	hip_flexion_r	hip_adduction_r	hip_rotation_r	knee_angle_r	ankle_angle_r	subtalar_angle_r	mtp_angle_r	hip_flexion_l	hip_adduction_l	hip_rotation_l	knee_angle_l	ankle_angle_l	subtalar_angle_l	mtp_angle_l	lumbar_extension	lumbar_bending	lumbar_rotation	arm_flex_r	arm_add_r	arm_rot_r	elbow_flex_r	pro_sup_r	arm_flex_l	arm_add_l	arm_rot_l	elbow_flex_l	pro_sup_l
0.39	0.0224539	-0.0374563	0.0482529	0.316239	0.961007	-0.20031	0.0389765	0.0306107	-0.26049	0.274644	0.323176	0.204295	-0.0189188	0.436692	-0.107668	-0.126399	0.85859	0.0741196	-0.180221	-0.0189201	-0.261166	0.0863179	-0.00487273	0.119767	-0.328623	0.272368	0.734187	1.69828	-0.0818052	-0.20919	0.14337	0.595192	1.70362
0.4	0.0244524	-0.0354506	0.047294	0.325761	0.960979	-0.199383	0.021817	0.028984	-0.269918	0.268266	0.332933	0.223505	-0.0189114	0.441088	-0.105869	-0.141145	0.812291	0.0781877	-0.169249	-0.0189127	-0.264112	0.0771861	-5.62824e-05	0.128592	-0.333019	0.281278	0.736645	1.69558	-0.0829601	-0.208244	0.136991	0.594159	1.70044
0.41	0.0261969	-0.0341075	0.0467793	0.335314	0.960761	-0.198549	0.0052458	0.0279568	-0.279551	0.26248	0.342637	0.242033	-0.0189039	0.444971	-0.104467	-0.156348	0.76514	0.0821008	-0.154598	-0.0189053	-0.266621	0.0689158	0.00398668	0.137562	-0.337199	0.289905	0.738209	1.69276	-0.0839729	-0.20719	0.131117	0.592318	1.69769
0.42	0.0276308	-0.0333473	0.046631	0.344905	0.960359	-0.197804	-0.0107343	0.0274666	-0.289388	0.257214	0.352279	0.260058	-0.0188965	0.448498	-0.103341	-0.171923	0.717533	0.0861969	-0.134935	-0.0188979	-0.268646	0.0613932	0.00734008	0.14652	-0.341051	0.297977	0.738989	1.69016	-0.0849033	-0.206102	0.125882	0.589775	1.69535
0.43	0.0287379	-0.0330608	0.04676	0.354544	0.959786	-0.197141	-0.0261733	0.0274101	-0.299467	0.252389	0.361833	0.277817	-0.0188891	0.451775	-0.102352	-0.187763	0.669866	0.0907766	-0.109157	-0.0188905	-0.27019	0.0544595	0.0100916	0.15531	-0.344464	0.305245	0.739102	1.68801	-0.0858081	-0.205061	0.121387	0.586674	1.69341
0.44	0.02955	-0.0331159	0.0470767	0.364239	0.959056	-0.196551	-0.0411812	0.0276515	-0.309849	0.247915	0.371256	0.295562	-0.0188817	0.454851	-0.101352	-0.203729	0.622528	0.0960767	-0.0765411	-0.0188831	-0.271303	0.0479179	0.0123208	0.163781	-0.347332	0.311514	0.738675	1.68648	-0.0867384	-0.204138	0.117684	0.58317	1.69184
0.45	0.0301419	-0.0333628	0.0474996	0.374003	0.95819	-0.196025	-0.0559234	0.028036	-0.320601	0.243699	0.380486	0.313514	-0.0188742	0.45771	-0.100183	-0.219656	0.575894	0.102247	-0.0368653	-0.0188757	-0.272076	0.0415463	0.0140923	0.171791	-0.349562	0.31666	0.737833	1.68563	-0.0877387	-0.203399	0.114758	0.579424	1.69066
0.46	0.0306184	-0.0336438	0.0479596	0.383848	0.957206	-0.195553	-0.0706032	0.0284067	-0.331765	0.239644	0.389444	0.331825	-0.0188668	0.460292	-0.0986982	-0.235354	0.530331	0.109334	0.00952029	-0.0188682	-0.272623	0.0351102	0.0154551	0.179204	-0.351076	0.320631	0.736709	1.68537	-0.0888493	-0.202897	0.112523	0.575581	1.68988
0.47	0.0310936	-0.0338053	0.0483993	0.393791	0.956127	-0.195124	-0.0854339	0.0286211	-0.343327	0.235653	0.398041	0.350538	-0.0188594	0.462506	-0.0967729	-0.250621	0.486205	0.117289	0.0616856	-0.0188608	-0.273058	0.0283775	0.0164484	0.185882	-0.351819	0.323446	0.735435	1.68554	-0.0901077	-0.202675	0.110832	0.571773	1.68953
0.48	0.031668	-0.0337095	0.0487666	0.403849	0.954972	-0.194727	-0.100603	0.0285627	-0.3552	0.231646	0.406182	0.36957	-0.018852	0.464262	-0.0943299	-0.265264	0.443899	0.125977	0.11818	-0.0188534	-0.273468	0.02113	0.017114	0.191687	-0.351756	0.325175	0.73415	1.68589	-0.0915511	-0.202768	0.109495	0.568112	1.68964
0.49	0.0324069	-0.0332435	0.049005	0.414044	0.953757	-0.194348	-0.116237	0.028147	-0.367212	0.227566	0.413782	0.388719	-0.0188445	0.465497	-0.0913555	-0.279117	0.403818	0.135211	0.177153	-0.018846	-0.27389	0.0131736	0.0175107	0.196472	-0.350881	0.325925	0.732992	1.68615	-0.0932168	-0.203206	0.108302	0.564691	1.69024
0.5	0.0333237	-0.0323276	0.0490439	0.424395	0.952492	-0.193973	-0.132377	0.0273227	-0.379103	0.22339	0.420771	0.407677	-0.0188371	0.466196	-0.0879138	-0.292058	0.36641	0.144781	0.236505	-0.0188386	-0.274291	0.00434749	0.0177296	0.200085	-0.349217	0.325829	0.732097	1.68609	-0.095142	-0.204014	0.107052	0.561585	1.69132
0.51	0.034372	-0.0309186	0.0487925	0.434923	0.951183	-0.193585	-0.14896	0.0260672	-0.39054	0.219145	0.427108	0.426059	-0.0188297	0.466405	-0.0841485	-0.304008	0.332162	0.15447	0.294048	-0.0188312	-0.274562	-0.00547046	0.0179025	0.202372	-0.346814	0.325038	0.731592	1.68555	-0.0973614	-0.205211	0.105567	0.558846	1.69285
0.52	0.0354499	-0.0290076	0.0481393	0.445649	0.949829	-0.193166	-0.165823	0.0243762	-0.401134	0.214905	0.43279	0.443436	-0.0188223	0.466232	-0.0802714	-0.314929	0.301591	0.164052	0.347655	-0.0188238	-0.274524	-0.0163619	0.0182038	0.203183	-0.343753	0.323722	0.731587	1.68446	-0.099904	-0.206809	0.103699	0.556505	1.69477
0.53	0.0364154	-0.0266126	0.04696	0.456591	0.948426	-0.192701	-0.182725	0.0222492	-0.410476	0.210795	0.437859	0.459376	-0.0188148	0.465835	-0.076534	-0.324808	0.275222	0.173267	0.39538	-0.0188164	-0.273949	-0.0283719	0.0188389	0.202389	-0.340133	0.322067	0.732171	1.68283	-0.102789	-0.20881	0.101337	0.554565	1.69697
